<?xml version="1.0" encoding="UTF-8" standalone="no"?>
<!-- Generator: Adobe Illustrator 27.5.0, SVG Export Plug-In . SVG Version: 6.00 Build 0)  -->

<svg
   version="1.1"
   id="Layer_1"
   x="0px"
   y="0px"
   viewBox="0 0 4000 4000"
   style="enable-background:new 0 0 4000 4000;"
   xml:space="preserve"
   sodipodi:docname="logo.svg"
   inkscape:version="1.3 (0e150ed6c4, 2023-07-21)"
   xmlns:inkscape="http://www.inkscape.org/namespaces/inkscape"
   xmlns:sodipodi="http://sodipodi.sourceforge.net/DTD/sodipodi-0.dtd"
   xmlns:xlink="http://www.w3.org/1999/xlink"
   xmlns="http://www.w3.org/2000/svg"
   xmlns:svg="http://www.w3.org/2000/svg"><defs
   id="defs16" /><sodipodi:namedview
   id="namedview16"
   pagecolor="#ffffff"
   bordercolor="#000000"
   borderopacity="0.25"
   inkscape:showpageshadow="2"
   inkscape:pageopacity="0.0"
   inkscape:pagecheckerboard="0"
   inkscape:deskcolor="#d1d1d1"
   inkscape:export-bgcolor="#ffffff00"
   inkscape:zoom="0.14371945"
   inkscape:cx="2052.6101"
   inkscape:cy="1402.0371"
   inkscape:window-width="1920"
   inkscape:window-height="1009"
   inkscape:window-x="-8"
   inkscape:window-y="-8"
   inkscape:window-maximized="1"
   inkscape:current-layer="g16" />&#10;<g
   id="g16">&#10;	&#10;	&#10;	<g
   id="g2"
   transform="matrix(0.70889387,0,0,0.70889387,-194.49558,771.88426)"
   inkscape:export-filename="logolight.png"
   inkscape:export-xdpi="96"
   inkscape:export-ydpi="96">&#10;		<defs
   id="defs1">&#10;			<path
   id="SVGID_1_"
   d="m 2024.97,1248.208 c -111.379,-209.986 -285.651,-136.635 -285.651,-136.635 -251.033,113.967 -237.526,129.203 49.524,163.243 128.846,-51.445 236.127,-26.608 236.127,-26.608" />&#10;		</defs>&#10;		<clipPath
   id="SVGID_00000091003304247106368330000008023035848321428148_">&#10;			<use
   xlink:href="#SVGID_1_"
   style="overflow:visible"
   id="use1" />&#10;		</clipPath>&#10;		&#10;			<linearGradient
   id="SVGID_00000102504268644599260210000009700524306362393532_"
   gradientUnits="userSpaceOnUse"
   x1="1398.2697"
   y1="1252.6628"
   x2="2446.2686"
   y2="971.49548">&#10;			<stop
   offset="0"
   style="stop-color:#0000FF"
   id="stop1" />&#10;			<stop
   offset="1"
   style="stop-color:#00FFFF"
   id="stop2" />&#10;		</linearGradient>&#10;		&#10;			<rect
   x="1488.287"
   y="1038.2209"
   style="fill:url(#SVGID_00000102504268644599260210000009700524306362393532_)"
   width="536.68402"
   height="236.595"
   clip-path="url(#SVGID_00000091003304247106368330000008023035848321428148_)"
   id="rect2" />&#10;	</g>&#10;	<path
   style="clip-rule:evenodd;opacity:0.4;fill:#021b8d;fill-rule:evenodd;stroke-width:0.708894"
   d="m 970.69768,1661.3192 c 25.7286,4.6894 59.98452,9.1838 102.90732,14.275 91.3374,-36.469 167.389,-18.8629 167.389,-18.8629 0,0 -72.2973,-97.563 -215.7859,-28.7251 -20.5437,9.8557 -38.60992,21.1697 -54.51042,33.313"
   id="path2" />&#10;	<g
   id="g4"
   transform="matrix(0.70889387,0,0,0.70889387,-194.49558,771.88426)">&#10;		<defs
   id="defs2">&#10;			<path
   id="SVGID_00000049943421242388999380000006810825301461765304_"
   d="m 2247.637,2084.806 c 0,0 566.125,-109.872 865.576,-179.253 0,0 -14.606,438.222 -511.259,383.446 -496.655,-54.78 -606.213,-54.78 -606.213,-54.78 0,0 62.083,-171.636 251.896,-149.413" />&#10;		</defs>&#10;		<clipPath
   id="SVGID_00000036954676655618042300000005142570846618774719_">&#10;			<use
   xlink:href="#SVGID_00000049943421242388999380000006810825301461765304_"
   style="overflow:visible"
   id="use2" />&#10;		</clipPath>&#10;		&#10;			<linearGradient
   id="SVGID_00000066501022736887050540000015522414076545650580_"
   gradientUnits="userSpaceOnUse"
   x1="1395.7239"
   y1="2329.5854"
   x2="4370.0586"
   y2="1803.583">&#10;			<stop
   offset="0"
   style="stop-color:#0000FF"
   id="stop3" />&#10;			<stop
   offset="1"
   style="stop-color:#00FFFF"
   id="stop4" />&#10;		</linearGradient>&#10;		&#10;			<rect
   x="1995.741"
   y="1905.553"
   style="fill:url(#SVGID_00000066501022736887050540000015522414076545650580_)"
   width="1117.472"
   height="438.22101"
   clip-path="url(#SVGID_00000036954676655618042300000005142570846618774719_)"
   id="rect4" />&#10;	</g>&#10;	<path
   style="clip-rule:evenodd;opacity:0.3;fill:#020c6a;fill-rule:evenodd;stroke-width:0.708894"
   d="m 2012.4421,2122.7191 c 0,0 -10.3541,310.6529 -362.4284,271.8225 -179.0106,-19.7427 -287.0489,-29.4488 -350.0419,-34.2183 l -4.6227,-56.3911 c 0,0 304.8336,-6.4707 475.6933,-14.2367 170.8619,-7.7673 241.3997,-166.9764 241.3997,-166.9764"
   id="path4" />&#10;	<path
   style="clip-rule:evenodd;opacity:0.3;fill:#020c6a;fill-rule:evenodd;stroke-width:0.708894"
   d="m 2012.4421,2122.7191 c 0,0 -10.3541,310.6529 -362.4284,271.8225 -23.1794,-2.5591 -45.1523,-4.9431 -66.0087,-7.174 43.6424,3.4063 94.1475,5.9292 139.1396,4.5781 108.085,-3.2347 183.1597,-64.0713 208.3978,-95.1386 25.2394,-31.0658 -7.1173,-40.1248 -30.4165,-23.945 -23.3,16.1791 -102.258,29.1235 -148.8571,29.1235 -46.5963,0 -251.0725,-3.1283 -251.0725,-3.1283 90.6278,-2.4883 193.5812,-5.6974 269.8475,-9.1625 170.8605,-7.7666 241.3983,-166.9757 241.3983,-166.9757"
   id="path5" />&#10;	<g
   id="g6"
   transform="matrix(0.70889387,0,0,0.70889387,-194.49558,771.88426)">&#10;		<defs
   id="defs5">&#10;			<path
   id="SVGID_00000137811091436221675220000001251566831634608306_"
   d="m 1563.097,1797.128 c -78.292,-115.65 -62.219,-304.002 83.907,-433.885 47.432,-42.17 96.004,-70.125 141.84,-88.427 -11.943,-76.848 -55.682,-257.722 -207.576,-331.542 -195.371,-94.945 -511.261,5.477 -628.123,286.673 -116.858,281.196 -122.331,898.365 345.113,1157.644 241.262,133.828 522.414,95.457 738.004,26.995 -18.077,-270.432 -52.856,-489.442 -473.165,-617.458" />&#10;		</defs>&#10;		<clipPath
   id="SVGID_00000147219891003753718050000017145838611043776141_">&#10;			<use
   xlink:href="#SVGID_00000137811091436221675220000001251566831634608306_"
   style="overflow:visible"
   id="use5" />&#10;		</clipPath>&#10;		&#10;			<linearGradient
   id="SVGID_00000152256567212674337680000011651703681042080128_"
   gradientUnits="userSpaceOnUse"
   x1="2634.72"
   y1="2995.2119"
   x2="545.71448"
   y2="716.37268">&#10;			<stop
   offset="0"
   style="stop-color:#0000FF"
   id="stop5" />&#10;			<stop
   offset="1"
   style="stop-color:#00FFFF"
   id="stop6" />&#10;		</linearGradient>&#10;		&#10;			<rect
   x="830.81403"
   y="848.33002"
   style="fill:url(#SVGID_00000152256567212674337680000011651703681042080128_)"
   width="1205.448"
   height="1673.0909"
   clip-path="url(#SVGID_00000147219891003753718050000017145838611043776141_)"
   id="rect6" />&#10;	</g>&#10;	<g
   id="g8"
   transform="matrix(0.70889387,0,0,0.70889387,-194.49558,771.88426)">&#10;		<defs
   id="defs6">&#10;			<path
   id="SVGID_00000042702476648389152300000011697194412186804389_"
   d="m 1648.837,1481.929 c 0,0 -409.017,671.946 558.732,1000.615 0,0 102.254,-251.981 -3.648,-642.731 -105.908,-390.752 -449.181,-379.797 -555.084,-357.884" />&#10;		</defs>&#10;		<clipPath
   id="SVGID_00000146470468903956348240000007032774631664642223_">&#10;			<use
   xlink:href="#SVGID_00000042702476648389152300000011697194412186804389_"
   style="overflow:visible"
   id="use6" />&#10;		</clipPath>&#10;		&#10;			<linearGradient
   id="SVGID_00000061452180688543415200000008320611053008447911_"
   gradientUnits="userSpaceOnUse"
   x1="2771.9822"
   y1="3242.5181"
   x2="1417.1488"
   y2="1507.855">&#10;			<stop
   offset="0"
   style="stop-color:#0000FF"
   id="stop7" />&#10;			<stop
   offset="1"
   style="stop-color:#00FFFF"
   id="stop8" />&#10;		</linearGradient>&#10;		&#10;			<rect
   x="1239.821"
   y="1449.061"
   style="fill:url(#SVGID_00000061452180688543415200000008320611053008447911_)"
   width="1070.0031"
   height="1033.483"
   clip-path="url(#SVGID_00000146470468903956348240000007032774631664642223_)"
   id="rect8" />&#10;	</g>&#10;	<path
   style="clip-rule:evenodd;opacity:0.3;fill:#01052d;fill-rule:evenodd;stroke-width:0.708894"
   d="M 1248.9981,2483.5702 C 974.71708,2356.579 911.22648,2183.2026 913.57428,2045.8566 c -12.529,-18.505 -21.6482,-39.6343 -27.067,-62.3203 -27.8382,294.0003 107.3755,451.5427 229.43002,532.7983 46.7785,-8.0169 91.6252,-19.6045 133.0608,-32.7644"
   id="path8" />&#10;	<path
   style="clip-rule:evenodd;opacity:0.3;fill:#01052d;fill-rule:evenodd;stroke-width:0.708894"
   d="m 1398.8405,2249.7905 c 3.7097,44.3186 3.7444,84.2201 1.7149,119.1104 14.0892,1.3065 29.2043,2.7399 45.4032,4.3137 4.6617,-47.34 4.595,-94.5452 2.971,-133.2274 -31.4175,6.1794 -50.0891,9.8033 -50.0891,9.8033"
   id="path9" />&#10;	<path
   style="clip-rule:evenodd;opacity:0.3;fill:#01052d;fill-rule:evenodd;stroke-width:0.708894"
   d="m 1073.605,1675.5935 c 11.1431,-4.4518 22.0579,-8.0955 32.6339,-11.0623 -14.1729,-47.99 -32.0165,-86.6552 -44.6837,-110.9362 -14.3147,2.5995 -23.0575,6.2758 -23.0575,6.2758 21.3796,44.5476 30.9581,89.0038 35.1073,115.7227"
   id="path10" />&#10;	<path
   style="clip-rule:evenodd;opacity:0.3;fill:#01052d;fill-rule:evenodd;stroke-width:0.708894"
   d="m 1380.5929,2499.499 c 0,0 -75.2867,-51.5131 -139.9612,-143.0533 -2.6924,-3.8082 -5.3649,-7.6866 -8.0147,-11.6316 -1.4065,-2.099 -2.8094,-4.2165 -4.2031,-6.3524 -27.4788,-42.1522 -51.8945,-91.7826 -66.1114,-147.944 -20.9946,-82.9462 -19.737,-180.1349 26.7827,-288.4843 -25.2728,44.2775 -47.3633,98.8283 -56.194,162.4203 -4.3342,31.1878 -4.174,63.1008 -0.074,95.0818 11.1629,87.1302 51.5387,174.7764 109.8445,249.7015 36.4917,46.8983 80.0086,88.8088 127.7746,122.5075 0,0 4.5305,-11.1665 10.1563,-32.2455"
   id="path11" />&#10;	<path
   style="clip-rule:evenodd;opacity:0.3;fill:#ffffff;fill-rule:evenodd;stroke-width:0.708894"
   d="m 1370.4458,2531.7317 c -47.7745,-33.6852 -91.2914,-75.5964 -127.7831,-122.4947 -58.3058,-74.9251 -98.6816,-162.572 -109.8445,-249.7015 -4.1003,-31.9803 -4.2605,-63.894 0.074,-95.0818 8.8307,-63.5927 30.922,-118.1428 56.194,-162.4203 8.5238,-14.9272 17.4048,-28.689 26.2631,-41.235 -92.7091,-54.0801 -196.4614,-47.5972 -240.99412,-38.383 0,0 -58.6071,96.2798 -60.7806,223.4419 -2.3478,137.3453 61.1428,310.7224 335.42382,437.7136 36.6129,16.9504 76.9759,33.0727 121.4477,48.1608"
   id="path12" />&#10;	<path
   style="clip-rule:evenodd;opacity:0.3;fill:#ffffff;fill-rule:evenodd;stroke-width:0.708894"
   d="m 1254.7742,2424.3152 c -4.1194,-4.9637 -8.1544,-9.9905 -12.1122,-15.0782 -58.3058,-74.9251 -98.6816,-162.572 -109.8445,-249.7015 -4.1003,-31.9803 -4.2605,-63.894 0.074,-95.0818 8.8307,-63.5927 30.922,-118.1428 56.194,-162.4203 8.5238,-14.9272 17.4048,-28.689 26.2631,-41.235 -92.7091,-54.0801 -196.4614,-47.5972 -240.99412,-38.383 0,0 -58.6071,96.2798 -60.7806,223.4419 -2.0593,120.4163 46.4992,268.5169 243.33352,388.7829 -43.0525,-26.9805 -205.45372,-139.7371 -223.39872,-315.8264 -20.7103,-203.2207 62.1289,-238.1656 115.19952,-239.4643 53.0721,-1.2959 107.4386,28.4741 86.7282,99.669 -20.711,71.1921 -59.0487,271.8502 119.3288,445.2868 z"
   id="path13" />&#10;	<path
   style="clip-rule:evenodd;opacity:0.3;fill:#01052d;fill-rule:evenodd;stroke-width:0.708894"
   d="m 903.63138,2224.115 c -74.4069,-13.4491 -166.9169,-55.7722 -216.0446,-176.4904 -90.6066,-222.6352 -5.4011,-453.1328 232.5781,-466.4628 -48.8605,-8.1289 -108.0546,-0.5459 -175.6228,40.6004 -190.3578,115.9269 -182.6408,595.9636 179.4473,662.8144 22.0069,4.0634 45.3267,6.5984 69.9862,7.4356 -15.5658,-20.7103 -28.4337,-41.5958 -38.9565,-62.4479 -15.3603,-0.5281 -32.8097,-2.0863 -51.3877,-5.4493"
   id="path14" />&#10;	<path
   style="clip-rule:evenodd;opacity:0.3;fill:#ffffff;fill-rule:evenodd;stroke-width:0.708894"
   d="m 923.99078,2284.5766 c -362.0881,-66.8508 -369.8051,-546.8875 -179.4473,-662.8144 67.5676,-41.1463 126.7623,-48.7293 175.6228,-40.6004 16.6193,2.7625 32.0456,7.3441 46.1979,13.045 68.56572,27.6065 107.24152,81.3867 107.24152,81.3867 -4.1492,-26.7196 -13.727,-71.1751 -35.1073,-115.7219 -22.2146,-46.2745 -57.17652,-92.6397 -112.04212,-119.3055 -138.4973,-67.3059 -362.4297,3.8826 -445.2725,203.2208 -82.83992,199.3381 -86.7197,636.8454 244.6485,820.6467 124.6604,69.1491 264.3437,73.4499 390.10642,51.9017 -71.1453,-47.3634 -146.75802,-120.6417 -191.94792,-231.7587"
   id="path15" />&#10;	<path
   style="clip-rule:evenodd;opacity:0.3;fill:#ffffff;fill-rule:evenodd;stroke-width:0.708894"
   d="m 669.72688,2100.474 c -89.6772,-169.9906 -50.0415,-402.6765 74.8166,-478.711 67.5676,-41.1464 126.7623,-48.7294 175.6228,-40.6005 16.6193,2.7625 32.0456,7.3441 46.1979,13.045 68.56572,27.6065 107.24152,81.3867 107.24152,81.3867 -4.1492,-26.7196 -13.727,-71.175 -35.1073,-115.7219 -22.2146,-46.2745 -57.17652,-92.6397 -112.04212,-119.3055 -138.4973,-67.3059 -362.4297,3.8827 -445.2725,203.2208 -82.83992,199.3381 -86.7197,636.8454 244.6485,820.6467 23.3396,12.948 47.2017,23.6218 71.4055,32.276 -397.71858,-199.4062 -390.5552,-635.483 -299.94581,-852.9397 90.60661,-217.4582 293.82661,-208.3985 367.60901,-198.0423 73.7838,10.3513 49.188,93.1947 1.2951,110.0217 -47.8929,16.8256 -200.6311,27.184 -243.3491,218.7526 -42.7151,191.5729 46.8728,325.9721 46.8728,325.9721 h 0.01 z"
   id="path16" />&#10;<text
   xml:space="preserve"
   style="font-size:489.345px;line-height:0;font-family:'Helvetica Rounded';-inkscape-font-specification:'Helvetica Rounded';fill:#00ceff;fill-opacity:1;fill-rule:evenodd;stroke:#39e4a8;stroke-width:0.205294"
   x="1350.0601"
   y="2019.2535"
   id="text16"><tspan
     sodipodi:role="line"
     id="tspan16"
     x="1350.0601"
     y="2019.2535"
     style="font-style:normal;font-variant:normal;font-weight:bold;font-stretch:normal;font-family:Helvetica;-inkscape-font-specification:'Helvetica Bold';fill:#000000;fill-opacity:1;stroke-width:0.205294">TechStore</tspan></text></g>&#10;</svg>
