<?xml version="1.0" encoding="UTF-8" standalone="no"?>
<!-- Generator: Adobe Illustrator 27.5.0, SVG Export Plug-In . SVG Version: 6.00 Build 0)  -->

<svg
   version="1.1"
   id="Layer_1"
   x="0px"
   y="0px"
   viewBox="0 0 4000 4000"
   style="enable-background:new 0 0 4000 4000;"
   xml:space="preserve"
   sodipodi:docname="logo2.svg"
   inkscape:version="1.3 (0e150ed6c4, 2023-07-21)"
   xmlns:inkscape="http://www.inkscape.org/namespaces/inkscape"
   xmlns:sodipodi="http://sodipodi.sourceforge.net/DTD/sodipodi-0.dtd"
   xmlns:xlink="http://www.w3.org/1999/xlink"
   xmlns="http://www.w3.org/2000/svg"
   xmlns:svg="http://www.w3.org/2000/svg"><defs
   id="defs16" /><sodipodi:namedview
   id="namedview16"
   pagecolor="#ffffff"
   bordercolor="#000000"
   borderopacity="0.25"
   inkscape:showpageshadow="2"
   inkscape:pageopacity="0.0"
   inkscape:pagecheckerboard="0"
   inkscape:deskcolor="#d1d1d1"
   inkscape:zoom="0.20325"
   inkscape:cx="2337.0234"
   inkscape:cy="2147.6015"
   inkscape:window-width="1920"
   inkscape:window-height="1009"
   inkscape:window-x="-8"
   inkscape:window-y="-8"
   inkscape:window-maximized="1"
   inkscape:current-layer="g16" />&#10;<g
   id="g16">&#10;	&#10;	&#10;	<g
   id="g2"
   transform="matrix(1.7690246,0,0,1.8001662,-1539.3234,-1094.8023)">&#10;		<defs
   id="defs1">&#10;			<path
   id="SVGID_1_"
   d="m 2024.97,1248.208 c -111.379,-209.986 -285.651,-136.635 -285.651,-136.635 -251.033,113.967 -237.526,129.203 49.524,163.243 128.846,-51.445 236.127,-26.608 236.127,-26.608" />&#10;		</defs>&#10;		<clipPath
   id="SVGID_00000091003304247106368330000008023035848321428148_">&#10;			<use
   xlink:href="#SVGID_1_"
   style="overflow:visible"
   id="use1" />&#10;		</clipPath>&#10;		&#10;			<linearGradient
   id="SVGID_00000102504268644599260210000009700524306362393532_"
   gradientUnits="userSpaceOnUse"
   x1="1398.2697"
   y1="1252.6628"
   x2="2446.2686"
   y2="971.49548">&#10;			<stop
   offset="0"
   style="stop-color:#0000FF"
   id="stop1" />&#10;			<stop
   offset="1"
   style="stop-color:#00FFFF"
   id="stop2" />&#10;		</linearGradient>&#10;		&#10;			<rect
   x="1488.287"
   y="1038.2209"
   style="fill:url(#SVGID_00000102504268644599260210000009700524306362393532_)"
   width="536.68402"
   height="236.595"
   clip-path="url(#SVGID_00000091003304247106368330000008023035848321428148_)"
   id="rect2" />&#10;	</g>&#10;	<path
   style="clip-rule:evenodd;opacity:0.4;fill:#021b8d;fill-rule:evenodd;stroke-width:1.78453"
   d="m 1368.3836,1163.8304 c 64.2049,11.908 149.6895,23.3211 256.8022,36.2498 227.9301,-92.6094 417.7146,-47.9004 417.7146,-47.9004 0,0 -180.4158,-247.7515 -538.4876,-72.9448 -51.2664,25.0278 -96.35,53.7586 -136.0292,84.5954"
   id="path2" />&#10;	<g
   id="g4"
   transform="matrix(1.7690246,0,0,1.8001662,-1539.3234,-1094.8023)">&#10;		<defs
   id="defs2">&#10;			<path
   id="SVGID_00000049943421242388999380000006810825301461765304_"
   d="m 2247.637,2084.806 c 0,0 566.125,-109.872 865.576,-179.253 0,0 -14.606,438.222 -511.259,383.446 -496.655,-54.78 -606.213,-54.78 -606.213,-54.78 0,0 62.083,-171.636 251.896,-149.413" />&#10;		</defs>&#10;		<clipPath
   id="SVGID_00000036954676655618042300000005142570846618774719_">&#10;			<use
   xlink:href="#SVGID_00000049943421242388999380000006810825301461765304_"
   style="overflow:visible"
   id="use2" />&#10;		</clipPath>&#10;		&#10;			<linearGradient
   id="SVGID_00000066501022736887050540000015522414076545650580_"
   gradientUnits="userSpaceOnUse"
   x1="1395.7239"
   y1="2329.5854"
   x2="4370.0586"
   y2="1803.583">&#10;			<stop
   offset="0"
   style="stop-color:#0000FF"
   id="stop3" />&#10;			<stop
   offset="1"
   style="stop-color:#00FFFF"
   id="stop4" />&#10;		</linearGradient>&#10;		&#10;			<rect
   x="1995.741"
   y="1905.553"
   style="fill:url(#SVGID_00000066501022736887050540000015522414076545650580_)"
   width="1117.472"
   height="438.22101"
   clip-path="url(#SVGID_00000036954676655618042300000005142570846618774719_)"
   id="rect4" />&#10;	</g>&#10;	<path
   style="clip-rule:evenodd;opacity:0.3;fill:#020c6a;fill-rule:evenodd;stroke-width:1.78453"
   d="m 3968.0273,2335.51 c 0,0 -25.8384,788.8725 -904.4297,690.2665 -446.7159,-50.1346 -716.3225,-74.7825 -873.5198,-86.8939 l -11.5358,-143.1997 c 0,0 760.7038,-16.4317 1187.0794,-36.1527 426.3809,-19.7245 602.4059,-424.0202 602.4059,-424.0202"
   id="path4" />&#10;	<path
   style="clip-rule:evenodd;opacity:0.3;fill:#020c6a;fill-rule:evenodd;stroke-width:1.78453"
   d="m 3968.0273,2335.51 c 0,0 -25.8384,788.8725 -904.4297,690.2665 -57.8436,-6.4985 -112.6763,-12.5525 -164.7228,-18.2176 108.9082,8.6498 234.9424,15.0565 347.219,11.6255 269.7232,-8.2142 457.0698,-162.7026 520.0506,-241.5948 62.9844,-78.8888 -17.761,-101.8932 -75.9035,-60.8062 -58.1443,41.0851 -255.1817,73.9563 -371.4686,73.9563 -116.2799,0 -626.5444,-7.9441 -626.5444,-7.9441 226.1592,-6.3185 483.0765,-14.468 673.397,-23.2672 426.3774,-19.7227 602.4024,-424.0184 602.4024,-424.0184"
   id="path5" />&#10;	<g
   id="g6"
   transform="matrix(1.7690246,0,0,1.8001662,-1539.3234,-1088.8023)">&#10;		<defs
   id="defs5">&#10;			<path
   id="SVGID_00000137811091436221675220000001251566831634608306_"
   d="m 1563.097,1797.128 c -78.292,-115.65 -62.219,-304.002 83.907,-433.885 47.432,-42.17 96.004,-70.125 141.84,-88.427 -11.943,-76.848 -55.682,-257.722 -207.576,-331.542 -195.371,-94.945 -511.261,5.477 -628.123,286.673 -116.858,281.196 -122.331,898.365 345.113,1157.644 241.262,133.828 522.414,95.457 738.004,26.995 -18.077,-270.432 -52.856,-489.442 -473.165,-617.458" />&#10;		</defs>&#10;		<clipPath
   id="SVGID_00000147219891003753718050000017145838611043776141_">&#10;			<use
   xlink:href="#SVGID_00000137811091436221675220000001251566831634608306_"
   style="overflow:visible"
   id="use5" />&#10;		</clipPath>&#10;		&#10;			<linearGradient
   id="SVGID_00000152256567212674337680000011651703681042080128_"
   gradientUnits="userSpaceOnUse"
   x1="2634.72"
   y1="2995.2119"
   x2="545.71448"
   y2="716.37268">&#10;			<stop
   offset="0"
   style="stop-color:#0000FF"
   id="stop5" />&#10;			<stop
   offset="1"
   style="stop-color:#00FFFF"
   id="stop6" />&#10;		</linearGradient>&#10;		&#10;			<rect
   x="830.81403"
   y="848.33002"
   style="fill:url(#SVGID_00000152256567212674337680000011651703681042080128_)"
   width="1205.448"
   height="1673.0909"
   clip-path="url(#SVGID_00000147219891003753718050000017145838611043776141_)"
   id="rect6" />&#10;	</g>&#10;	<g
   id="g8"
   transform="matrix(1.7690246,0,0,1.8001662,-1539.3234,-1094.8023)">&#10;		<defs
   id="defs6">&#10;			<path
   id="SVGID_00000042702476648389152300000011697194412186804389_"
   d="m 1648.837,1481.929 c 0,0 -409.017,671.946 558.732,1000.615 0,0 102.254,-251.981 -3.648,-642.731 -105.908,-390.752 -449.181,-379.797 -555.084,-357.884" />&#10;		</defs>&#10;		<clipPath
   id="SVGID_00000146470468903956348240000007032774631664642223_">&#10;			<use
   xlink:href="#SVGID_00000042702476648389152300000011697194412186804389_"
   style="overflow:visible"
   id="use6" />&#10;		</clipPath>&#10;		&#10;			<linearGradient
   id="SVGID_00000061452180688543415200000008320611053008447911_"
   gradientUnits="userSpaceOnUse"
   x1="2771.9822"
   y1="3242.5181"
   x2="1417.1488"
   y2="1507.855">&#10;			<stop
   offset="0"
   style="stop-color:#0000FF"
   id="stop7" />&#10;			<stop
   offset="1"
   style="stop-color:#00FFFF"
   id="stop8" />&#10;		</linearGradient>&#10;		&#10;			<rect
   x="1239.821"
   y="1449.061"
   style="fill:url(#SVGID_00000061452180688543415200000008320611053008447911_)"
   width="1070.0031"
   height="1033.483"
   clip-path="url(#SVGID_00000146470468903956348240000007032774631664642223_)"
   id="rect8" />&#10;	</g>&#10;	<path
   style="clip-rule:evenodd;opacity:0.3;fill:#01052d;fill-rule:evenodd;stroke-width:1.78453"
   d="m 2062.8744,3251.8559 c -684.4604,-322.4817 -842.8995,-762.754 -837.0406,-1111.5307 -31.2657,-46.9916 -54.0225,-100.6473 -67.5448,-158.2562 -69.4697,746.5847 267.9525,1146.6483 572.5359,1352.9887 116.7344,-20.3579 228.6482,-49.7836 332.0495,-83.2018"
   id="path8" />&#10;	<path
   style="clip-rule:evenodd;opacity:0.3;fill:#01052d;fill-rule:evenodd;stroke-width:1.78453"
   d="m 2436.802,2658.1953 c 9.2573,112.5428 9.344,213.8688 4.2794,302.4692 35.1592,3.3178 72.8784,6.9577 113.3024,10.9541 11.633,-120.2152 11.4667,-240.0882 7.4139,-338.318 -78.4014,15.6922 -124.9957,24.8947 -124.9957,24.8947"
   id="path9" />&#10;	<path
   style="clip-rule:evenodd;opacity:0.3;fill:#01052d;fill-rule:evenodd;stroke-width:1.78453"
   d="m 1625.1858,1200.0786 c 27.8074,-11.3052 55.045,-20.558 81.4371,-28.0915 -35.368,-121.866 -79.8963,-220.0524 -111.5069,-281.71175 -35.7221,6.60125 -57.5393,15.93685 -57.5393,15.93685 53.3519,113.1243 77.2551,226.0162 87.6091,293.8664"
   id="path10" />&#10;	<path
   style="clip-rule:evenodd;opacity:0.3;fill:#01052d;fill-rule:evenodd;stroke-width:1.78453"
   d="m 2391.2655,3292.3056 c 0,0 -187.8757,-130.8127 -349.2691,-363.2699 -6.7189,-9.6706 -13.388,-19.5192 -20.0006,-29.5371 -3.5098,-5.3303 -7.0107,-10.7075 -10.4886,-16.1314 -68.5727,-107.0414 -129.5014,-233.0729 -164.9793,-375.6892 -52.3914,-210.6339 -49.253,-457.4348 66.8356,-732.5777 -63.0674,112.4385 -118.1939,250.9648 -140.2306,412.4504 -10.8158,79.1983 -10.4159,160.2383 -0.184,241.451 27.8569,221.2584 128.6134,443.8274 274.1138,634.0923 91.0643,119.0937 199.6594,225.5214 318.8581,311.0958 0,0 11.3058,-28.3563 25.3447,-81.8842"
   id="path11" />&#10;	<path
   style="clip-rule:evenodd;opacity:0.3;fill:#ffffff;fill-rule:evenodd;stroke-width:1.78453"
   d="m 2365.9436,3374.1573 c -119.2199,-85.5402 -227.8148,-191.9696 -318.879,-311.0633 -145.5006,-190.2649 -246.257,-412.8356 -274.1139,-634.0923 -10.232,-81.211 -10.6318,-162.2527 0.1841,-241.451 22.0367,-161.4875 77.1647,-300.0119 140.2304,-412.4504 21.271,-37.9061 43.4331,-72.8528 65.5389,-104.712 -231.3531,-137.3312 -490.264,-120.8686 -601.3941,-97.4701 0,0 -146.2525,244.4932 -151.6762,567.4088 -5.8589,348.7749 152.5802,789.0489 837.0406,1111.5308 91.3666,43.0437 192.0914,83.9848 303.0692,122.2995"
   id="path12" />&#10;	<path
   style="clip-rule:evenodd;opacity:0.3;fill:#ffffff;fill-rule:evenodd;stroke-width:1.78453"
   d="m 2077.2884,3101.3835 c -10.2798,-12.6047 -20.349,-25.3697 -30.2257,-38.2895 -145.5004,-190.2649 -246.2569,-412.8356 -274.1138,-634.0923 -10.2319,-81.211 -10.6318,-162.2527 0.184,-241.451 22.0367,-161.4875 77.1649,-300.0119 140.2306,-412.4504 21.2707,-37.9061 43.4332,-72.8528 65.5389,-104.712 -231.3532,-137.3312 -490.2641,-120.8686 -601.3941,-97.4701 0,0 -146.2524,244.4932 -151.6763,567.4088 -5.139,305.7853 116.0375,681.8724 607.2319,987.2761 -107.4364,-68.5144 -512.7039,-354.8488 -557.4852,-802.0102 -51.6821,-516.059 155.0409,-604.7983 287.4773,-608.0961 132.4397,-3.2908 268.1098,72.3073 216.4278,253.0997 -51.6838,180.7854 -147.3546,690.3368 297.7816,1130.7619 z"
   id="path13" />&#10;	<path
   style="clip-rule:evenodd;opacity:0.3;fill:#01052d;fill-rule:evenodd;stroke-width:1.78453"
   d="M 1201.0214,2592.9949 C 1015.3411,2558.8422 784.48503,2451.3669 661.88806,2144.8148 435.78207,1579.4546 648.40996,994.1287 1242.2804,960.2783 c -121.93,-20.6424 -269.64724,-1.3861 -438.26168,103.1009 -475.03268,294.3848 -455.77505,1513.3909 447.80568,1683.1519 54.9175,10.3186 113.1114,16.756 174.6486,18.882 -38.8441,-52.5917 -70.9556,-105.6283 -97.2148,-158.5801 -38.3314,-1.3414 -81.8759,-5.298 -128.2368,-13.8381"
   id="path14" />&#10;	<path
   style="clip-rule:evenodd;opacity:0.3;fill:#ffffff;fill-rule:evenodd;stroke-width:1.78453"
   d="M 1251.8278,2746.5311 C 348.24715,2576.7701 328.98951,1357.764 804.02205,1063.3792 972.63504,958.8922 1120.3539,939.6359 1242.284,960.2783 c 41.473,7.0153 79.9688,18.6498 115.2855,33.1269 171.1036,70.1036 267.6181,206.6734 267.6181,206.6734 -10.3541,-67.852 -34.2553,-180.7421 -87.6093,-293.8647 C 1482.1426,788.70447 1394.896,670.96464 1257.9806,603.24957 912.36428,432.33279 353.54709,613.10908 146.81538,1119.3087 -59.909327,1625.5083 -69.591177,2736.515 757.3288,3203.2604 c 311.0865,175.5973 659.6622,186.5189 973.4998,131.7991 -177.5412,-120.2743 -366.2308,-306.3577 -479.0008,-588.5284"
   id="path15" />&#10;	<path
   style="clip-rule:evenodd;opacity:0.3;fill:#ffffff;fill-rule:evenodd;stroke-width:1.78453"
   d="M 617.31926,2279.0208 C 393.53235,1847.3464 492.44215,1256.4634 804.02205,1063.3812 972.63504,958.894 1120.3539,939.6377 1242.284,960.28 c 41.473,7.0154 79.9688,18.6499 115.2855,33.1268 171.1036,70.104 267.6181,206.6734 267.6181,206.6734 -10.3541,-67.8518 -34.2553,-180.742 -87.6093,-293.8644 C 1482.1426,788.70615 1394.896,670.96644 1257.9806,603.25138 912.36428,432.33458 353.54709,613.11088 146.81538,1119.3104 -59.909327,1625.5101 -69.591177,2736.517 757.3288,3203.2622 c 58.2435,32.8802 117.79043,59.9851 178.19045,81.9617 C -56.976277,2778.8514 -39.100282,1671.4772 187.01292,1119.2672 413.11912,567.05363 920.24888,590.05975 1104.3708,616.35838 c 184.1254,26.28602 122.7473,236.65888 3.232,279.38952 -119.51532,42.7268 -500.66948,69.0308 -607.27083,555.5006 -106.5944,486.4806 116.96967,827.7742 116.96967,827.7742 h 0.0169 z"
   id="path16" />&#10;</g>&#10;</svg>
